HIERARCHY
ROOT Hips
{
	OFFSET 0.00000 0.00000 0.00000
	CHANNELS 6 Xposition Yposition Zposition Zrotation Yrotation Xrotation 
	JOINT RightUpLegDummy
	{
		OFFSET 0 0 0
		CHANNELS 3 Zrotation Yrotation Xrotation
		JOINT RightUpLeg
		{
			OFFSET -3.52197 -3.41223 0.04002
			CHANNELS 3 Zrotation Yrotation Xrotation
			JOINT RightLeg
			{
				OFFSET 0.00006 -17.42390 1.60435
				CHANNELS 3 Zrotation Yrotation Xrotation
				JOINT RightFoot
				{
					OFFSET 0.06154 -16.50078 -1.63900
					CHANNELS 3 Zrotation Yrotation Xrotation
					JOINT RightToes
					{
						OFFSET 0.00298 -1.73825 3.34613
						CHANNELS 3 Zrotation Yrotation Xrotation
						End Site
						{
							OFFSET 0.00480 -0.05416 3.85043
						}
					}
				}
			}
		}
	}
	JOINT SpineDummy
	{
		OFFSET 0 0 0
		CHANNELS 3 Zrotation Yrotation Xrotation
		JOINT Spine
		{
			OFFSET 0.00000 4.68130 0.00000
			CHANNELS 3 Zrotation Yrotation Xrotation
			JOINT Spine1
			{
				OFFSET -0.00000 10.10138 0.05002
				CHANNELS 3 Zrotation Yrotation Xrotation
				JOINT HEadDummy
				{
					OFFSET 0 0 0
					CHANNELS 3 Zrotation Yrotation Xrotation
					JOINT Head
					{
						OFFSET -0.00000 3.43865 0.00438
						CHANNELS 3 Zrotation Yrotation Xrotation
						End Site
						{
							OFFSET -0.11417 5.02924 0.98962
						}
					}
				}
				JOINT LeftShoulder1Dummy
				{
					OFFSET 0 0 0
					CHANNELS 3 Zrotation Yrotation Xrotation
					JOINT LeftShoulder1
					{
						OFFSET 3.53937 -0.14262 -0.08662
						CHANNELS 3 Zrotation Yrotation Xrotation
						JOINT LeftArm
						{
							OFFSET 4.04833 -0.00133 0.12681
							CHANNELS 3 Zrotation Yrotation Xrotation
							JOINT LeftForeArm
							{
								OFFSET 10.33880 -0.01036 -0.55515
								CHANNELS 3 Zrotation Yrotation Xrotation
								JOINT LeftHand
								{
									OFFSET 8.69677 0.07543 0.40060
									CHANNELS 3 Zrotation Yrotation Xrotation
									End Site
									{
										OFFSET 5.28377 -0.21905 0.59205
									}
								}
							}
						}
					}
				}
				JOINT RightShoulderDummy
				{
					OFFSET 0 0 0
					CHANNELS 3 Zrotation Yrotation Xrotation
					JOINT RightShoulder
					{
						OFFSET -3.53937 -0.14262 -0.08660
						CHANNELS 3 Zrotation Yrotation Xrotation
						JOINT RightArm
						{
							OFFSET -4.04833 -0.00133 0.12683
							CHANNELS 3 Zrotation Yrotation Xrotation
							JOINT RightForeArm
							{
								OFFSET -10.37987 -0.01039 -0.55511
								CHANNELS 3 Zrotation Yrotation Xrotation
								JOINT RightHand
								{
									OFFSET -8.67398 0.07538 0.40058
									CHANNELS 3 Zrotation Yrotation Xrotation
									End Site
									{
										OFFSET -5.24810 -0.21916 0.59204
									}
								}
							}
						}
					}
				}
			}
		}
	}
	JOINT LeftUpLegDummy
	{
		OFFSET 0 0 0
		CHANNELS 3 Zrotation Yrotation Xrotation
		JOINT LeftUpLeg
		{
			OFFSET 3.52197 -3.41223 0.04002
			CHANNELS 3 Zrotation Yrotation Xrotation
			JOINT LeftLeg
			{
				OFFSET -0.00012 -17.42399 1.60337
				CHANNELS 3 Zrotation Yrotation Xrotation
				JOINT LeftFoot
				{
					OFFSET -0.09972 -16.50070 -1.63802
					CHANNELS 3 Zrotation Yrotation Xrotation
					JOINT LeftToes
					{
						OFFSET -0.01575 -1.73823 3.34611
						CHANNELS 3 Zrotation Yrotation Xrotation
						End Site
						{
							OFFSET 0.03150 -0.01868 3.85031
						}
					}
				}
			}
		}
	}
}
MOTION
Frames: 8
Frame Time: 0.033333
-52.4274 39.1895 -5.6313 -107.6660 85.7102 -102.5170 0.0000 0.0000 0.0000 4.3042 1.0463 -23.2044 -1.2641 -10.0220 9.9808 4.8266 -0.7151 6.0119 -0.0000 -0.0000 0.0000 0.0000 0.0000 0.0000 -0.4717 -4.7214 -5.7536 8.3195 -7.6837 16.2736 0.0000 0.0000 0.0000 -1.4675 6.3140 -11.9166 0.0000 0.0000 0.0000 -18.4969 -3.1241 1.6610 -60.1953 -25.8573 18.0410 -7.1856 -18.0312 1.6225 14.1224 -2.8821 -0.9837 0.0000 0.0000 0.0000 19.3198 1.2128 1.2186 55.8631 0.0494 -11.9990 12.4765 4.1223 37.3556 -4.7946 0.4889 -0.2374 0.0000 0.0000 0.0000 2.4116 2.9113 10.1916 1.6086 1.7869 28.8724 -13.8193 2.2927 7.8965 -0.0000 0.0000 -0.0000
-51.1467 39.0499 -5.5641 -105.0240 84.1329 -100.5740 0.0000 0.0000 0.0000 6.1896 1.1128 -22.2475 -1.7712 -9.7672 13.9352 4.0027 -0.4911 2.8281 -0.0000 -0.0000 0.0000 0.0000 0.0000 0.0000 2.2449 -4.5236 -4.6406 8.4707 -7.3207 16.5951 0.0000 0.0000 0.0000 -1.2399 5.5965 -12.1446 0.0000 0.0000 0.0000 -18.8033 -3.5405 1.7853 -60.2480 -24.5693 15.8420 -7.9357 -17.2569 3.7779 14.9738 -2.9030 -1.0477 0.0000 0.0000 0.0000 19.3344 1.5937 1.3177 55.5028 2.3824 -11.9669 12.4954 3.6833 36.9049 -4.7584 0.2254 -0.2273 0.0000 0.0000 0.0000 3.9948 0.9856 4.3889 2.9405 2.3887 40.9568 -13.6460 3.5758 18.9305 -0.0000 0.0000 -0.0000
-49.8961 38.9739 -5.5048 -106.0180 83.1131 -102.3480 0.0000 0.0000 0.0000 7.4984 0.6952 -20.7917 -1.8764 -9.0402 16.9147 2.5394 -0.2459 -0.2470 -0.0000 -0.0000 0.0000 0.0000 0.0000 0.0000 4.3346 -4.2372 -4.1729 8.5849 -6.8322 17.8116 0.0000 0.0000 0.0000 -0.7879 4.5644 -11.8843 0.0000 0.0000 0.0000 -19.1235 -4.0090 1.9260 -60.0984 -23.6016 14.5761 -8.8179 -16.4181 5.3342 15.6051 -2.9170 -1.0951 0.0000 0.0000 0.0000 19.7105 1.8033 1.3903 54.8451 5.5673 -11.0773 12.6631 3.4715 36.9418 -5.2074 0.6799 -0.2656 0.0000 0.0000 0.0000 4.7287 -1.4658 -1.5733 4.7606 2.7704 51.3158 -12.2311 4.1391 27.4347 -0.0000 0.0000 -0.0000
-48.4845 39.0914 -5.4441 -101.3700 83.4090 -98.5673 0.0000 0.0000 0.0000 7.6879 -0.4260 -17.8519 -1.2505 -7.4872 17.6927 2.3072 -0.1788 -2.8818 -0.0000 -0.0000 0.0000 0.0000 0.0000 0.0000 5.3187 -3.4482 -4.3849 7.9997 -5.6765 18.9301 0.0000 0.0000 0.0000 -0.2822 3.4313 -10.5745 0.0000 0.0000 0.0000 -19.0960 -4.2985 1.9981 -60.3632 -22.3840 12.8408 -10.0016 -15.1506 8.1351 15.7407 -2.8742 -1.0995 0.0000 0.0000 0.0000 19.9760 1.8861 1.4252 54.3932 9.1083 -10.5313 12.7189 2.9440 37.9493 -5.6227 1.0366 -0.3014 0.0000 0.0000 0.0000 4.2394 -2.7611 -6.8846 6.9776 3.0609 58.7958 -10.0803 3.6018 29.7144 -0.0000 0.0000 -0.0000
-46.9631 39.2843 -5.3698 -85.4832 84.3582 -83.4606 0.0000 0.0000 0.0000 7.1705 -1.6260 -14.1472 -0.3540 -5.0681 17.1580 2.6940 -0.1654 -5.1590 -0.0000 -0.0000 0.0000 0.0000 0.0000 0.0000 5.6021 -2.1765 -4.7650 6.9052 -3.9138 19.4064 0.0000 0.0000 0.0000 0.0174 2.5986 -8.7181 0.0000 0.0000 0.0000 -18.7617 -4.2793 1.9692 -61.0965 -20.4771 10.6974 -11.0717 -13.7825 11.7536 15.5590 -2.8826 -1.0874 0.0000 0.0000 0.0000 19.8535 1.8806 1.4177 54.3683 12.8347 -10.4215 12.5658 2.2938 39.1089 -5.6376 1.0800 -0.3041 0.0000 0.0000 0.0000 3.2048 -2.4976 -11.8153 8.5918 3.0120 63.5620 -7.3411 2.3278 25.9763 -0.0000 0.0000 -0.0000
-45.4779 39.3738 -5.2891 -62.0811 84.6045 -60.6565 0.0000 0.0000 0.0000 6.6818 -2.3516 -11.1102 0.1252 -2.4452 17.3259 1.9768 -0.0982 -7.3914 -0.0000 -0.0000 0.0000 0.0000 0.0000 0.0000 5.8634 -0.8271 -4.6406 5.9869 -2.0907 19.1370 0.0000 0.0000 0.0000 0.0158 2.1762 -7.2363 0.0000 0.0000 0.0000 -18.4902 -4.0562 1.8937 -61.7380 -17.9356 8.7739 -11.8219 -12.6826 14.8490 15.5178 -3.0243 -1.1025 0.0000 0.0000 0.0000 19.5928 1.8120 1.3867 54.4987 16.5425 -10.0626 12.3546 2.4380 38.9880 -5.5394 1.1839 -0.3027 0.0000 0.0000 0.0000 2.4701 -1.7378 -16.6636 8.8634 2.7398 65.6777 -4.5787 1.1687 20.2671 -0.0000 0.0000 -0.0000
-44.0267 39.3855 -5.2157 -42.9200 84.1726 -42.0662 0.0000 0.0000 0.0000 6.1614 -2.9531 -8.5346 0.2353 -0.2476 18.1775 0.5205 -0.0430 -9.7053 -0.0000 -0.0000 0.0000 0.0000 0.0000 0.0000 6.1189 0.2692 -3.9612 5.2117 -0.5801 18.3701 0.0000 0.0000 0.0000 -0.2140 1.9659 -6.6657 0.0000 0.0000 0.0000 -18.4534 -3.8916 1.8500 -61.9024 -15.0767 6.7910 -12.4508 -11.6872 17.3359 15.7788 -3.2003 -1.1444 0.0000 0.0000 0.0000 19.4393 1.7572 1.3649 54.5825 19.9571 -8.8192 12.2202 4.0673 36.6908 -5.8359 1.4394 -0.3304 0.0000 0.0000 0.0000 1.9951 -1.3819 -21.0704 8.5100 2.7629 64.7951 -2.5314 0.5112 15.9383 -0.0000 0.0000 -0.0000
-42.5598 39.4226 -5.1551 -29.1721 83.8328 -28.8812 0.0000 0.0000 0.0000 5.1333 -3.7087 -5.4769 0.2685 1.3166 18.1425 -0.0762 -0.0422 -11.7753 -0.0000 -0.0000 0.0000 0.0000 0.0000 0.0000 6.0929 1.0061 -3.3358 4.1130 0.5207 17.7167 0.0000 0.0000 0.0000 -0.5158 1.8311 -6.9083 0.0000 0.0000 0.0000 -18.4839 -3.9577 1.8686 -61.7368 -12.1843 3.2424 -13.2854 -10.0250 20.9492 16.1655 -3.3520 -1.1936 0.0000 0.0000 0.0000 19.2934 1.7798 1.3636 54.7915 22.9628 -5.2661 11.8635 7.3048 31.3246 -6.5041 1.6402 -0.3792 0.0000 0.0000 0.0000 1.4643 -1.4909 -24.5638 8.2316 3.3478 60.6759 -1.9019 0.3222 12.5540 -0.0000 0.0000 -0.0000
